<svg xmlns="http://www.w3.org/2000/svg" viewBox="0 0 64 64"><rect width="64" height="64" rx="10" fill="#010309"/><rect x="2.54" y="2.54" width="2.04" height="2.04" fill="rgb(75,39,102)"/><rect x="9.95" y="2.84" width="1.42" height="1.42" fill="rgb(64,33,87)"/><rect x="16.96" y="2.74" width="1.64" height="1.64" fill="rgb(68,35,92)"/><rect x="23.79" y="2.46" width="2.19" height="2.19" fill="rgb(78,40,105)"/><rect x="31.09" y="2.64" width="1.83" height="1.83" fill="rgb(71,37,97)"/><rect x="38.11" y="2.55" width="2.01" height="2.01" fill="rgb(75,38,101)"/><rect x="44.94" y="2.28" width="2.56" height="2.56" fill="rgb(85,43,114)"/><rect x="52.29" y="2.51" width="2.08" height="2.08" fill="rgb(76,39,103)"/><rect x="59.39" y="2.50" width="2.10" height="2.10" fill="rgb(76,39,103)"/><rect x="2.33" y="9.44" width="2.45" height="2.45" fill="rgb(79,54,109)"/><rect x="9.86" y="9.86" width="1.62" height="1.62" fill="rgb(64,44,89)"/><rect x="16.82" y="9.71" width="1.92" height="1.92" fill="rgb(69,48,96)"/><rect x="23.56" y="9.34" width="2.66" height="2.66" fill="rgb(82,57,114)"/><rect x="30.92" y="9.58" width="2.17" height="2.17" fill="rgb(74,51,102)"/><rect x="37.90" y="9.46" width="2.41" height="2.41" fill="rgb(78,54,108)"/><rect x="44.65" y="9.09" width="3.15" height="3.15" fill="rgb(91,63,126)"/><rect x="52.08" y="9.41" width="2.51" height="2.51" fill="rgb(80,55,110)"/><rect x="59.17" y="9.40" width="2.54" height="2.54" fill="rgb(80,55,111)"/><rect x="2.05" y="16.27" width="3.01" height="3.01" fill="rgb(84,74,119)"/><rect x="9.72" y="16.83" width="1.89" height="1.89" fill="rgb(65,58,93)"/><rect x="16.63" y="16.63" width="2.29" height="2.29" fill="rgb(72,64,103)"/><rect x="23.24" y="16.13" width="3.29" height="3.29" fill="rgb(88,78,126)"/><rect x="30.69" y="16.46" width="2.63" height="2.63" fill="rgb(77,69,110)"/><rect x="37.63" y="16.30" width="2.96" height="2.96" fill="rgb(83,73,118)"/><rect x="44.24" y="15.80" width="3.96" height="3.96" fill="rgb(99,88,141)"/><rect x="51.79" y="16.23" width="3.09" height="3.09" fill="rgb(85,75,121)"/><rect x="58.88" y="16.21" width="3.13" height="3.13" fill="rgb(86,76,122)"/><rect x="1.67" y="23.01" width="3.77" height="3.77" fill="rgb(91,100,133)"/><rect x="9.54" y="23.76" width="2.26" height="2.26" fill="rgb(67,75,99)"/><rect x="16.38" y="23.49" width="2.79" height="2.79" fill="rgb(76,84,111)"/><rect x="22.82" y="22.82" width="4.14" height="4.14" fill="rgb(96,107,142)"/><rect x="30.38" y="23.27" width="3.25" height="3.25" fill="rgb(83,91,122)"/><rect x="37.26" y="23.04" width="3.70" height="3.70" fill="rgb(90,99,132)"/><rect x="43.70" y="22.37" width="5.04" height="5.04" fill="rgb(110,122,162)"/><rect x="51.40" y="22.95" width="3.87" height="3.87" fill="rgb(92,102,136)"/><rect x="58.48" y="22.93" width="3.93" height="3.93" fill="rgb(93,103,137)"/><rect x="1.16" y="29.61" width="4.79" height="4.79" fill="rgb(100,135,152)"/><rect x="9.29" y="30.63" width="2.75" height="2.75" fill="rgb(71,95,108)"/><rect x="16.04" y="30.27" width="3.47" height="3.47" fill="rgb(81,110,123)"/><rect x="22.24" y="29.36" width="5.29" height="5.29" fill="rgb(107,145,164)"/><rect x="29.96" y="29.96" width="4.08" height="4.08" fill="rgb(90,122,137)"/><rect x="36.77" y="29.66" width="4.69" height="4.69" fill="rgb(99,134,150)"/><rect x="43.02" y="28.80" width="6.40" height="6.40" fill="rgb(124,167,188)"/><rect x="50.87" y="29.53" width="4.93" height="4.93" fill="rgb(102,138,156)"/><rect x="57.94" y="29.50" width="5.00" height="5.00" fill="rgb(103,140,157)"/><rect x="0.47" y="36.03" width="6.16" height="6.16" fill="rgb(113,184,178)"/><rect x="8.96" y="37.41" width="3.41" height="3.41" fill="rgb(75,123,119)"/><rect x="15.59" y="36.92" width="4.38" height="4.38" fill="rgb(88,144,140)"/><rect x="21.69" y="35.91" width="6.40" height="6.40" fill="rgb(116,189,183)"/><rect x="30.57" y="37.68" width="2.86" height="2.86" fill="rgb(68,111,107)"/><rect x="37.64" y="37.64" width="2.95" height="2.95" fill="rgb(69,113,109)"/><rect x="44.70" y="37.59" width="3.04" height="3.04" fill="rgb(70,115,111)"/><rect x="52.54" y="38.32" width="1.58" height="1.58" fill="rgb(50,82,80)"/><rect x="59.56" y="38.23" width="1.76" height="1.76" fill="rgb(53,86,84)"/><rect x="1.84" y="44.50" width="3.44" height="3.44" fill="rgb(71,138,116)"/><rect x="8.52" y="44.07" width="4.30" height="4.30" fill="rgb(82,159,134)"/><rect x="14.97" y="43.41" width="5.62" height="5.62" fill="rgb(98,192,162)"/><rect x="23.74" y="45.07" width="2.31" height="2.31" fill="rgb(56,110,93)"/><rect x="31.40" y="45.62" width="1.20" height="1.20" fill="rgb(42,82,70)"/><rect x="38.50" y="45.61" width="1.22" height="1.22" fill="rgb(43,83,70)"/><rect x="45.61" y="45.61" width="1.23" height="1.23" fill="rgb(43,83,70)"/><rect x="2.90" y="52.68" width="1.30" height="1.30" fill="rgb(41,94,70)"/><rect x="9.73" y="52.39" width="1.88" height="1.88" fill="rgb(47,110,81)"/><rect x="16.92" y="52.47" width="1.72" height="1.72" fill="rgb(45,105,78)"/></svg>
